<?xml version="1.0" encoding="utf-8"?>
<!-- Svg Vector Icons : http://www.onlinewebfonts.com/icon -->
<!DOCTYPE svg PUBLIC "-//W3C//DTD SVG 1.1//EN" "http://www.w3.org/Graphics/SVG/1.1/DTD/svg11.dtd">
<svg version="1.1" xmlns="http://www.w3.org/2000/svg" xmlns:xlink="http://www.w3.org/1999/xlink" x="0px" y="0px" viewBox="0 0 1000 1000" enable-background="new 0 0 1000 1000" xml:space="preserve">
<metadata> Svg Vector Icons : http://www.onlinewebfonts.com/icon </metadata>
<g><g transform="translate(0.000000,453.000000) scale(0.100000,-0.100000)"><path d="M2555.1,2792.2c-1338-602.6-2441.1-1103.1-2452.7-1114.7c-11.6-11.5,19.2-104,84.7-254.1c55.8-130.9,105.9-240.6,107.8-244.5c3.8-3.9,50,11.5,102,34.6c52,21.2,100.1,40.4,105.9,40.4s11.5-1368.8,11.5-3041.8v-3041.8h490.9h490.9l1.9,256c0,138.6,0,1520.9,0,3070.7l1.9,2814.6h3492.3h3492.3v-3070.7v-3070.7h500.5h500.5v3041.8c0,1673,5.8,3041.8,11.5,3041.8c5.8,0,53.9-19.2,105.9-40.4c52-23.1,98.2-38.5,100.1-34.6c3.9,3.8,52,113.6,109.7,244.5c63.5,146.3,96.3,242.6,84.7,254.1c-15.4,15.4-4890,2215.9-4903.5,2212C4992.3,3889.6,3895,3396.7,2555.1,2792.2z"/><path d="M1785,936.3V791.9H5000h3215.1v144.4v144.4H5000H1785V936.3z"/><path d="M1798.5,586c-7.7-5.8-13.5-75.1-13.5-154V291.4H5000h3217l-5.8,150.2l-5.8,148.2l-3197.7,5.8C3250.1,597.5,1804.2,593.7,1798.5,586z"/><path d="M1792.7,71.9c-5.8-13.5-7.7-80.9-3.9-148.2l5.8-123.2H5000h3205.4v144.4V89.3L5003.9,95C2322.1,98.9,1802.3,95,1792.7,71.9z"/><path d="M4124.1-788.6c-693.1-53.9-745-84.7-881.7-512.1c-46.2-146.3-119.4-394.7-159.8-550.6c-69.3-261.8-78.9-283-113.6-271.4c-21.2,7.7-132.8,17.3-250.3,21.2c-186.7,5.8-219.5,1.9-275.3-32.7c-77-48.1-127.1-154-109.7-232.9c23.1-102,94.3-163.6,231-200.2c69.3-19.3,125.1-40.4,125.1-46.2c0-5.8-13.5-28.9-30.8-50.1c-44.3-59.7-104-273.4-104-377.3c0-98.2,92.4-668,142.5-883.7c21.2-84.7,30.8-225.2,30.8-438.9c0-331.1,15.4-404.3,94.3-446.7c21.2-11.5,175.2-19.2,358.1-19.2h321.5l55.8,55.8c53.9,53.9,55.8,63.5,55.8,240.6v184.8H5000h1386.1v-184.8c0-177.1,1.9-186.8,55.8-240.6l55.8-55.8h310c169.4,0,329.2,7.7,356.2,19.2c90.5,32.7,107.8,104,107.8,437c0,269.5,7.7,342.7,67.4,641.1c90.5,462.1,119.4,706.5,92.4,822.1c-17.3,73.2-75.1,223.3-115.5,296.5c-3.8,5.8,50.1,26.9,119.4,46.2c136.7,36.6,207.9,98.2,231,200.2c17.3,78.9-32.7,184.8-109.7,232.9c-55.8,34.6-88.6,38.5-275.3,32.7c-115.5-3.9-229.1-13.5-250.3-21.2c-34.6-11.6-44.3,9.6-113.6,271.4c-117.4,444.7-232.9,789.3-286.8,860.6c-92.4,119.4-263.8,163.6-793.2,204.1C5525.6-763.6,4434-765.5,4124.1-788.6z M5876-1114c127.1-9.6,290.7-28.9,361.9-40.4c127.1-21.2,134.8-25,161.7-92.4c40.4-94.3,281.1-945.3,271.4-954.9c-3.9-5.8-38.5,0-75.1,9.6c-36.6,11.6-182.9,36.6-325.4,57.8c-791.2,113.6-2102.3,96.3-2762.6-36.6c-94.3-19.2-175.2-32.7-179-30.8c-9.6,9.6,163.6,631.5,232.9,837.5l61.6,182.9l119.4,23.1c67.4,13.5,213.7,32.7,327.3,40.4C4358.9-1092.8,5596.8-1090.9,5876-1114z M3529.2-3451.1c53.9-53.9,65.4-78.9,65.4-148.2c-1.9-225.3-290.7-294.6-394.7-94.3c-36.6,71.2-36.6,121.3,0,192.5c36.6,69.3,113.6,113.6,200.2,115.5C3448.3-3385.7,3481.1-3403,3529.2-3451.1z M6713.4-3414.6c61.6-32.7,115.5-117.4,115.5-182.9c0-55.8-50-146.3-100.1-181c-23.1-17.3-71.2-30.8-107.8-30.8c-130.9,0-213.7,80.9-215.6,209.8c0,69.3,11.5,94.3,65.5,148.2C6544-3378,6619.1-3366.5,6713.4-3414.6z"/></g></g>
</svg>